<svg width="63" height="63" viewBox="0 0 63 63" fill="none" xmlns="http://www.w3.org/2000/svg">
<rect width="63" height="63" rx="5" fill="#1E43B1"/>
<path d="M38.6666 35.4934L24.4569 32.4947L23.8615 35.3482L38.0712 38.3252L38.6666 35.4934ZM42.3697 29.1764L31.2241 19.8606L29.3725 22.097L40.5181 31.4128L42.3697 29.1764ZM40.1042 32.059L26.9401 25.909L25.7275 28.5592L38.8844 34.6947L40.1042 32.059ZM36.5827 15.2354L34.2592 16.978L42.9215 28.6173L45.245 26.8747L36.5827 15.2354ZM38.0712 39.0513H23.5493V41.9339H38.0712V39.0513ZM40.9538 44.8601H20.6594V36.1469H17.755V47.7645H43.8582V36.1469H40.9538V44.8601Z" fill="#FDFDFD"/>
</svg>
