<svg width="178" height="41" viewBox="0 0 178 41" fill="none" xmlns="http://www.w3.org/2000/svg">
<path d="M95.595 15.2327C86.0991 16.8218 81.4144 26.917 69.0043 24.6076C60.2727 22.9856 61.1964 14.6828 61.2019 8.65649C61.2129 8.651 61.2239 8.6455 61.2404 8.6345C61.6308 6.40211 61.7792 4.6096 61.4713 3.71335C61.1744 2.83359 59.7998 2.24525 58.8375 2.31123C58.7936 2.30023 58.7496 2.28374 58.7056 2.27274C58.6946 2.28923 58.6781 2.30573 58.6671 2.32223C58.6671 2.32223 58.6616 2.32223 58.6561 2.32223C54.9116 3.28446 47.2027 23.1725 43.1393 26.4386C41.9352 26.6696 42.3201 25.8833 42.2981 25.053C42.2046 21.7759 45.7786 9.69571 44.8054 8.2826L43.1613 7.76024C37.7398 15.832 34.4187 26.2902 28.7993 34.087C27.947 35.2637 27.7051 36.7263 25.8301 36.3359C25.3407 35.8356 26.9133 28.8415 27.1937 27.5328C28.7168 20.5223 32.9286 10.603 33.4895 4.09274C33.5719 3.11951 33.539 1.42597 32.8406 0.727661C30.3278 -1.80165 26.3029 2.93256 24.7414 4.73607C21.5632 8.40356 19.6498 13.0663 16.2022 16.5413C16.1912 2.24525 8.95517 12.39 6.02447 18.7407L4.63885 18.1964L7.51457 5.25842L5.2052 3.36694C4.22647 4.90102 3.95154 5.78628 3.3742 6.55057C3.33021 7.5403 3.11027 8.49704 2.73637 9.38779C2.17003 12.5934 -4.24672 28.3741 4.79281 25.2015L10.7147 14.9028C11.9354 14.6719 11.5065 15.4471 11.545 16.2774C11.6549 18.4493 10.4178 20.4673 11.589 22.2598C12.5292 23.7059 14.1897 24.0523 15.6798 23.178C17.8627 21.8969 22.421 11.8071 24.4994 8.89843C24.9338 8.2881 27.7655 4.18072 28.5683 4.99999C26.127 14.2375 20.1776 27.0105 21.3983 36.6329C21.8217 39.9814 25.5716 42.0214 28.3264 39.6625C32.2138 36.3304 35.0895 26.9445 38.1962 22.5897C39.3069 24.8881 37.168 27.4449 38.1962 29.7267C38.8835 31.2388 41.6327 32.311 43.1558 31.4258C45.8776 29.8422 52.9102 14.3749 55.401 10.6579C55.7419 10.1521 55.9178 9.61873 56.3907 9.43178C56.5117 24.2612 62.736 31.5137 79.0995 25.3224C89.3432 21.446 90.135 16.5358 103.238 16.5358C125.633 16.5358 153.912 32.4485 174.828 26.5046C175.846 26.2132 177.814 26.2792 177.583 24.8496C151.003 31.3818 121.476 10.8889 95.6005 15.2272L95.595 15.2327Z" fill="#010101"/>
<path d="M58.2954 39.062H58.1909L55.4087 32.2659H53.8086V41.0085H55.0623V34.6797H55.1447L57.7235 40.9975H58.7627L61.3415 34.6797H61.424V41.0085H62.6777V32.2659H61.0776L58.2954 39.062Z" fill="#010101"/>
<path d="M73.0973 32.2659L69.9521 41.0085H71.3543L72.157 38.6936H75.5716L76.3689 41.0085H77.771L74.6259 32.2659H73.1028H73.0973ZM72.5364 37.5829L73.8286 33.8494H73.8946L75.1812 37.5829H72.5309H72.5364Z" fill="#010101"/>
<path d="M83.561 33.3986H86.2883V41.0085H87.6024V33.3986H90.3297V32.2659H83.561V33.3986Z" fill="#010101"/>
<path d="M97.4009 33.3986H100.123V41.0085H101.437V33.3986H104.164V32.2659H97.4009V33.3986Z" fill="#010101"/>
<path d="M124.177 38.6881H124.095L119.646 32.2659H118.426V41.0085H119.745V34.5972H119.828L124.271 41.0085H125.48V32.2659H124.177V38.6881Z" fill="#010101"/>
<path d="M135.9 32.2659L132.754 41.0085H134.157L134.959 38.6936H138.374L139.171 41.0085H140.573L137.428 32.2659H135.905H135.9ZM135.339 37.5829L136.631 33.8494H136.697L137.983 37.5829H135.333H135.339Z" fill="#010101"/>
<path d="M155.111 32.2659L152.324 39.062H152.225L149.437 32.2659H147.837V41.0085H149.096V34.6797H149.173L151.752 40.9975H152.797L155.375 34.6797H155.452V41.0085H156.711V32.2659H155.111Z" fill="#010101"/>
</svg>
