<svg width="698" height="161" viewBox="0 0 698 161" fill="none" xmlns="http://www.w3.org/2000/svg">
<path d="M375.319 59.8056C338.036 66.0445 319.644 105.68 270.92 96.6128C236.638 90.2444 240.265 57.6468 240.287 33.9865C240.33 33.965 240.373 33.9434 240.438 33.9002C241.971 25.1355 242.553 18.0979 241.345 14.5791C240.179 11.125 234.782 8.81514 231.004 9.07419C230.831 9.03101 230.659 8.96625 230.486 8.92308C230.443 8.98784 230.378 9.0526 230.335 9.11737C230.335 9.11737 230.313 9.11737 230.292 9.11737C215.59 12.8952 185.324 90.9784 169.371 103.802C164.643 104.708 166.154 101.621 166.068 98.3615C165.701 85.4951 179.733 38.0666 175.912 32.5186L169.457 30.4677C148.171 62.1587 135.132 103.219 113.07 133.83C109.724 138.45 108.774 144.192 101.412 142.66C99.4909 140.695 105.665 113.235 106.766 108.098C112.746 80.5731 129.282 41.6286 131.484 16.0686C131.808 12.2476 131.678 5.59855 128.937 2.85689C119.071 -7.07351 103.269 11.5136 97.1379 18.5944C84.6601 32.9935 77.1475 51.3 63.612 64.9435C63.5688 8.81514 35.1592 48.6447 23.6529 73.5786L18.2128 71.4414L29.5032 20.6453L20.4363 13.2191C16.5937 19.2421 15.5143 22.7177 13.2476 25.7184C13.0748 29.6042 12.2113 33.3605 10.7434 36.8577C8.51982 49.4434 -16.6732 111.4 18.8172 98.9443L42.0673 58.5103C46.8598 57.6036 45.176 60.6475 45.3271 63.9073C45.7588 72.4345 40.9016 80.3572 45.4998 87.3948C49.1913 93.0724 55.7108 94.4325 61.5611 91C70.1315 85.97 88.0278 46.3564 96.188 34.9364C97.8934 32.5402 109.011 16.4141 112.163 19.6306C102.578 55.8982 79.22 106.047 84.0125 143.825C85.6747 156.972 100.398 164.982 111.213 155.72C126.476 142.638 137.766 105.788 149.963 88.6901C154.324 97.7138 145.926 107.752 149.963 116.711C152.662 122.648 163.456 126.857 169.435 123.382C180.121 117.164 207.732 56.4379 217.512 41.8445C218.85 39.8584 219.541 37.7644 221.397 37.0304C221.872 95.2528 246.31 123.727 310.555 99.4193C350.773 84.1998 353.882 64.9219 405.326 64.9219C493.253 64.9219 604.279 127.397 686.399 104.061C690.393 102.916 698.121 103.176 697.215 97.5627C592.859 123.209 476.933 42.7512 375.34 59.784L375.319 59.8056Z" fill="#DDDDDD"/>
<path d="M228.875 153.363H228.465L217.542 126.681H211.26V161.005H216.182V136.158H216.505L226.63 160.962H230.71L240.835 136.158H241.159V161.005H246.081V126.681H239.799L228.875 153.363Z" fill="#DDDDDD"/>
<path d="M286.99 126.681L274.642 161.005H280.147L283.299 151.917H296.705L299.835 161.005H305.34L292.992 126.681H287.012H286.99ZM284.788 147.556L289.862 132.898H290.121L295.172 147.556H284.767H284.788Z" fill="#DDDDDD"/>
<path d="M328.071 131.128H338.779V161.005H343.938V131.128H354.646V126.681H328.071V131.128Z" fill="#DDDDDD"/>
<path d="M382.409 131.128H393.094V161.005H398.254V131.128H408.962V126.681H382.409V131.128Z" fill="#DDDDDD"/>
<path d="M487.536 151.895H487.212L469.747 126.681H464.955V161.005H470.136V135.834H470.46L487.903 161.005H492.652V126.681H487.536V151.895Z" fill="#DDDDDD"/>
<path d="M533.56 126.681L521.212 161.005H526.717L529.869 151.917H543.275L546.405 161.005H551.91L539.562 126.681H533.582H533.56ZM531.358 147.556L536.432 132.898H536.691L541.742 147.556H531.337H531.358Z" fill="#DDDDDD"/>
<path d="M608.989 126.681L598.044 153.363H597.655L586.71 126.681H580.428V161.005H585.372V136.158H585.674L595.799 160.962H599.901L610.025 136.158H610.328V161.005H615.271V126.681H608.989Z" fill="#DDDDDD"/>
</svg>
